<?xml version="1.0" standalone="no"?><!DOCTYPE svg PUBLIC "-//W3C//DTD SVG 1.1//EN" "http://www.w3.org/Graphics/SVG/1.1/DTD/svg11.dtd"><svg class="icon" width="32px" height="28.69px" viewBox="0 0 1142 1024" version="1.1" xmlns="http://www.w3.org/2000/svg"><path d="M564.24064148-14.14062593c-2.38063313 0-2.38063313 0 0 0-2.38063313 0-2.38063313 0 0 0-2.38063313 0-2.38063313 0 0 0-1.19031655 0-1.19031655 0 0 0-140.45739472 3.57094966-226.16021406 83.32218361-224.96989751 221.39894514 2.38063313 198.78292505 85.70281673 320.19524939 223.77958092 317.81461625 138.07676156 2.38063313 221.39894515-119.03169117 223.77957833-317.81461625 1.19031655-138.07676156-84.5125001-216.6376789-222.58926174-221.39894514zM1049.88994142 942.8741725l-172.59595265-289.24701065c-10.71285178-17.85475382-26.18697243-29.75792213-42.85140964-36.89982418l-19.04507036-8.33221863v380.9014129h247.58591754c1.19031655-16.66443725-3.57094966-32.13855793-13.09348489-46.42235944zM588.04697811 852.41008691h-49.99330904v42.85140702h-42.85140967v49.99331172h42.85140967v42.85140965h49.99330904v-42.85140965h42.85140968v-49.99331172h-42.85140968v-42.85140702zM245.23570864 653.62716185l-172.59595263 289.24701065c-8.33221863 14.2838041-13.09348491 29.75792213-13.09348487 46.42235944h247.58591756v-380.9014129l-19.04507036 8.33221863c-15.47412067 7.14190205-30.9482387 19.04507036-42.8514097 36.89982418z" fill="#fc9153" /><path d="M660.65630994 514.3600837l-97.60598505 97.60598504-97.60598769-97.60598504-57.1352111 47.61267594-28.56760562 13.09348485v208.30546029h146.40898022l-26.1869724-126.17359324 63.08679659 69.03838211 63.08679662-69.03838211-26.18697242 126.17359324h146.40898019v-208.30546029l-28.56760558-13.09348485-57.13521376-47.61267594z" fill="#fc9153" /></svg>